<?xml version="1.0" encoding="utf-8"?>
<!-- Generator: Adobe Illustrator 23.0.3, SVG Export Plug-In . SVG Version: 6.00 Build 0)  -->
<svg version="1.1" id="Capa_1" xmlns="http://www.w3.org/2000/svg" xmlns:xlink="http://www.w3.org/1999/xlink" x="0px" y="0px"
	 viewBox="0 0 1920 1080" style="enable-background:new 0 0 1920 1080;" xml:space="preserve">
<style type="text/css">
	.st0{fill:#DADADA;stroke:#DADADA;stroke-miterlimit:10;}
	.st1{fill:#849BFF;stroke:#DADADA;stroke-miterlimit:10;}
	.st2{fill:#F5F5F5;stroke:#DADADA;stroke-miterlimit:10;}
	.st3{fill:#DADADA;}
	.st4{fill:#849BFF;}
	.st5{fill:#F5F5F5;}
	.st6{fill:#DDE9F1;}
	.st7{fill:#4C5270;}
	.st8{fill:#C1C8D1;}
	.st9{fill:#564E6A;}
	.st10{fill:#D8D355;}
	.st11{fill:#D71313;}
</style>
<image style="display:none;overflow:visible;opacity:0.55;" width="1366" height="768" xlink:href="../imagener ecommerce/404.png"  transform="matrix(1.4056 0 0 1.4063 0 0)">
</image>
<g>
	<g>
		<polyline class="st0" points="1344.5,671.5 1321.5,671.5 1321.5,638.5 1556.5,284.5 1665.5,284.5 1665.5,308.5 1579.5,308.5 		"/>
		<polygon class="st1" points="1579.5,308.5 1665.2,308.5 1687.5,308.5 1687.5,596.5 1745.5,596.5 1745.5,691.5 1689.5,691.5 
			1689.5,795.5 1585.5,795.5 1585.5,692.5 1344.5,692.5 1344.5,660.5 		"/>
		<polygon class="st0" points="1585.5,456.5 1585.5,596.5 1497.5,596.5 1511.5,572.5 1561.5,572.5 1561.5,491.5 		"/>
		<polyline class="st0" points="1665.5,284.5 1665.5,308.5 1579.5,308.5 1344.5,660.5 1344.5,671.5 1321.5,671.5 1321.5,638.5 
			1556.5,284.5 		"/>
	</g>
	<polygon class="st2" points="1561.5,491.5 1511.5,572.5 1561.5,572.5 	"/>
	<polygon class="st0" points="1585.5,456.5 1585.5,596.5 1497.5,596.5 1512.5,571.5 1561.5,571.5 1561.5,491.5 	"/>
	<rect x="1561.5" y="692.5" class="st0" width="24" height="78"/>
	<rect x="1687.5" y="572.5" class="st0" width="34" height="24"/>
</g>
<g>
	<g>
		<polyline class="st0" points="218.5,671.5 195.5,671.5 195.5,638.5 430.5,284.5 539.5,284.5 539.5,308.5 453.5,308.5 		"/>
		<polygon class="st1" points="453.5,308.5 539.2,308.5 561.5,308.5 561.5,596.5 619.5,596.5 619.5,691.5 563.5,691.5 563.5,795.5 
			459.5,795.5 459.5,692.5 218.5,692.5 218.5,660.5 		"/>
		<polygon class="st0" points="459.5,456.5 459.5,596.5 371.5,596.5 385.5,572.5 435.5,572.5 435.5,491.5 		"/>
		<polyline class="st0" points="539.5,284.5 539.5,308.5 453.5,308.5 218.5,660.5 218.5,671.5 195.5,671.5 195.5,638.5 430.5,284.5 
					"/>
	</g>
	<polygon class="st2" points="435.5,491.5 385.5,572.5 435.5,572.5 	"/>
	<polygon class="st0" points="459.5,456.5 459.5,596.5 371.5,596.5 386.5,571.5 435.5,571.5 435.5,491.5 	"/>
	<rect x="435.5" y="692.5" class="st0" width="24" height="79"/>
	<rect x="561.5" y="572.5" class="st0" width="40" height="24"/>
</g>
<g>
	<g>
		<ellipse class="st3" cx="958" cy="546" rx="203" ry="255"/>
	</g>
	<ellipse class="st4" cx="973.5" cy="566.5" rx="203" ry="255"/>
	<ellipse class="st5" cx="958" cy="545.5" rx="83.5" ry="159"/>
	<path class="st3" d="M1030.5,440.5c0,0,57,67,18,215l-23.9-14.1c0,0,17.7-53.6,16.8-87.3l16.1-15.7l-16-4.2c0,0-7.4-76.9-18.2-87.8
		L1030.5,440.5z"/>
	<path class="st3" d="M1003.4,678.9c0,0-53.4,63.1-100.5-13.8c0,0,21,72.9,95,55.9C998,721,1006.9,713.8,1003.4,678.9z"/>
</g>
<g>
	<g>
		<g>
			<path class="st6" d="M919.5,315.5l-65,56l181,65l-79,68l101,35l-78,73v14h-144c0,0-37-1-51,40l-42,78c0,0-23,46-74-11
				c0,0-34-27-26-105c0,0,5-140,66-260C708.5,368.5,752.5,329.5,919.5,315.5z"/>
			<path class="st7" d="M826.6,327.6c0,0-1.1-20.1-32.1-9.1l-68,24c0,0-16.2,5.3-12.6,22.2"/>
		</g>
		<g>
			<polygon class="st7" points="929.4,397.8 881,398 881,404 935,404 935,399.8 			"/>
			<polygon class="st7" points="964.1,410.1 881,410 881,417 983.5,417 			"/>
			<polygon class="st7" points="1003.8,424.2 881,424 881,429 1006,429 1006,426 			"/>
		</g>
		<g>
			<circle class="st8" cx="865" cy="540" r="40"/>
			<circle class="st9" cx="865" cy="530" r="40"/>
			<circle class="st8" cx="865.5" cy="530.5" r="31.5"/>
		</g>
		<g>
			<path class="st8" d="M762,404.5v-4.2c0-5.9,2.6-11.4,7.2-15.1l5.9-4.8c2.7-2.2,6.5-2.3,9.2-0.2l4.8,3.6c3.4,2.5,5.4,6.5,5.3,10.7
				l-0.2,9.9c-0.1,4.2,3.3,7.7,7.5,7.7h12.9c2.2,0,4.2,0.9,5.6,2.5l8.9,10c2.7,3.1,2.5,7.7-0.5,10.5l-7.4,6.9c-1.4,1.3-3.2,2-5.2,2
				h-12.5c-4.2,0-7.5,3.4-7.5,7.5V465c0,2.5-1.3,4.9-3.4,6.3l-9.7,6.4c-2.9,1.9-6.8,1.6-9.3-0.8l-8.4-7.8c-1.4-1.3-2.3-3.2-2.4-5.2
				l-0.5-10.7c-0.2-4-3.5-7.2-7.5-7.2h-10.2c-2.3,0-4.4-1-5.8-2.8l-7.8-9.5c-2.3-2.8-2.3-6.8,0-9.6l7.8-9.5c1.4-1.7,3.6-2.8,5.8-2.8
				h9.9C758.6,412,762,408.6,762,404.5z"/>
			<polygon class="st7" points="772,404 786,404 779,390 			"/>
			<polygon class="st7" points="805.3,421.7 804.7,435.7 819,429.3 			"/>
			<polygon class="st7" points="773,453 787,453 780,467 			"/>
			<polygon class="st7" points="756.5,421.7 757,435.7 742.7,429.3 			"/>
		</g>
		<g>
			<path class="st7" d="M1006.3,522.1l-38.6-12.9c0,0,0,0.1,0,0.1c-7.1,21.4,4.6,44.7,25.8,51.7c21.2,7,44.5-4.8,51.5-26.2
				L1006.3,522.1z"/>
			<path class="st8" d="M1007.3,522l-29.7-9.9c0,0,0,0.1,0,0.1c-5.4,16.4,3.5,34.3,19.8,39.7s34.2-3.7,39.6-20.1L1007.3,522z"/>
		</g>
	</g>
	<path class="st8" d="M979,613l3,13H837c0,0-41,4-51,39l-41.5,80.5c0,0-12.8,17.4-23.5,16.3c-0.5-0.1-1-0.1-1.5-0.3l52-117
		c0,0,13-31,59-32L979,613z"/>
	<path class="st8" d="M806.6,585.3l-80.1-92.6c0,0-26.2-25.9-20.8-64.2c0,0,3.3-28.7,11.6-43c0,0-12.7,7.6-20,46.9
		c0,0-12.1,43.6,19.1,70.2l83,89.5c0,0,20.9,20.1,47.7,15.9C847.1,608,829.3,611.8,806.6,585.3z"/>
</g>
<path class="st8" d="M919,315"/>
<g>
	<g>
		<path class="st6" d="M1246.5,451.5l-78-39l5,84l-5,4l5,108l-99-49l5,110L981.9,621l21.6,61.5c0,0,4,26-8,43l-73,84
			c0,0-24,31,26,55c0,0,44,26,102,0c0,0,170-74,237-162C1287.5,702.5,1309.5,614.5,1246.5,451.5z"/>
		<path class="st7" d="M1282.5,574.1c0,0,18,0.4,19,17.4l3,87c0,0,1.7,12.5-15.7,16.8"/>
	</g>
	<g>
		<path class="st8" d="M1058.6,696.1l116.6,37.4c0,0,34.1,13.9,67.2-6c0,0,25.1-14.2,35-27.6c0,0-2,14.6-35.3,36.8
			c0,0-35.3,28.2-72.1,10l-114.8-41.3c0,0-26.7-11.3-33.4-37.7C1021.7,667.7,1025.3,685.6,1058.6,696.1z"/>
		<path class="st8" d="M981,626v-5h5l14,9l22,63c0,0,6.5,35.5-23.5,59.5l-80,81c0,0-9-8,12-34l65-75c0,0,19-20,3-58L981,626z"/>
		<g>
			<g>
				<path class="st7" d="M1078.2,614.4l1.6,40c0,0,0.1,0,0.1,0c23.4-1,41.8-19.9,40.9-41.8c-1-21.9-21-39.1-44.3-38.1L1078.2,614.4z
					"/>
				<path class="st8" d="M1077.1,614.1l1.3,32.1c0,0,0.1,0,0.1,0c19.4-0.8,34.7-16,34-33.6c-0.8-17.6-17.4-31.4-36.8-30.6
					L1077.1,614.1z"/>
			</g>
			<path class="st8" d="M1224,503c0,0-2-14-12-10c0,0-7,2-1,14l10,28c0,0,3,7,10,3c0,0,6-2,3-8L1224,503z"/>
			<path class="st8" d="M1202,448.9c0,0-3.1-13.8-12.7-9c0,0-6.8,2.5,0.1,14l12.2,27.1c0,0,3.5,6.7,10.2,2.2c0,0,5.8-2.5,2.4-8.2
				L1202,448.9z"/>
			<polygon class="st7" points="1173,491 1198,551 1194,551 1171,499 1173,498 			"/>
			<polygon class="st7" points="1169,514 1186,559 1183,560 1169,529 			"/>
			<polyline class="st7" points="1171,553 1176,564 1173,565 1171,563 1171,554 			"/>
			<g>
				<circle class="st7" cx="1242.2" cy="648.5" r="22"/>
				<circle class="st8" cx="1220.5" cy="701.2" r="22"/>
				<circle class="st10" cx="1167.8" cy="676.5" r="22"/>
				<circle class="st11" cx="1191.5" cy="625.8" r="22"/>
			</g>
		</g>
	</g>
</g>
</svg>
